<?xml version="1.0" encoding="UTF-8" standalone="no"?>
<svg
   id="Layer_1"
   data-name="Layer 1"
   viewBox="0 0 800 800"
   version="1.1"
   sodipodi:docname="1519882353remix.svg"
   inkscape:version="1.2.2 (b0a8486, 2022-12-01)"
   xmlns:inkscape="http://www.inkscape.org/namespaces/inkscape"
   xmlns:sodipodi="http://sodipodi.sourceforge.net/DTD/sodipodi-0.dtd"
   xmlns="http://www.w3.org/2000/svg"
   xmlns:svg="http://www.w3.org/2000/svg"
   xmlns:rdf="http://www.w3.org/1999/02/22-rdf-syntax-ns#"
   xmlns:cc="http://creativecommons.org/ns#"
   xmlns:dc="http://purl.org/dc/elements/1.1/">
  <sodipodi:namedview
     id="namedview86632"
     pagecolor="#ffffff"
     bordercolor="#000000"
     borderopacity="0.25"
     inkscape:showpageshadow="2"
     inkscape:pageopacity="0.0"
     inkscape:pagecheckerboard="0"
     inkscape:deskcolor="#d1d1d1"
     showgrid="false"
     inkscape:zoom="0.6251321"
     inkscape:cx="484.69755"
     inkscape:cy="368.72206"
     inkscape:window-width="1390"
     inkscape:window-height="1099"
     inkscape:window-x="0"
     inkscape:window-y="25"
     inkscape:window-maximized="0"
     inkscape:current-layer="Layer_1" />
  <defs
     id="defs86531">
    <style
       id="style86529">.cls-1{fill:#303f9e;}.cls-2{fill:#1a68c7;}.cls-3{fill:#4050b5;}.cls-4{fill:#2a3885;}.cls-5{fill:#304094;}.cls-6{fill:#3f52b7;}.cls-7{fill:#0289d1;}.cls-8{fill:#1d66c5;}.cls-9{fill:#424eb4;}.cls-10{fill:#20dff3;}.cls-11{fill:#26327e;}.cls-12{fill:#01abf6;}.cls-13{fill:#1876d3;}.cls-14{fill:#1e71c4;}.cls-15{fill:#0782cf;}.cls-16{fill:#1a6ac7;}.cls-17{fill:#186cca;}</style>
  </defs>
  <title
     id="title86533">Cricketer</title>
  <g
     id="cricketer" />
  <g
     id="g88944">
    <path
       class="cls-2"
       d="M413,380.35a27.2,27.2,0,0,0,0,14.84,25.23,25.23,0,0,0,5.48,9.49c4.64,5.3,10.21,19.19,15.12,55.43l37,17.46a135.68,135.68,0,0,0-2.15-41.19,137.08,137.08,0,0,0-26.07-56Z"
       id="path86537" />
    <path
       class="cls-3"
       d="M431.31,388.69l-18.74,4.8a28.22,28.22,0,0,0,2.66,6.33c1.84,3.2,3.49,4.62,5.06,6.67A25.39,25.39,0,0,1,425,417.74l20.8-11.83Z"
       id="path86539" />
    <path
       class="cls-4"
       d="M429.33,393.49,325.12,407.07a35.86,35.86,0,0,0-10,2.82l-55.6,24.8a2.1,2.1,0,0,0-1,2.93l3.63,6.66a2.12,2.12,0,0,0,2.39,1L433.69,401Z"
       id="path86541"
       style="fill:#855d2a;fill-opacity:1" />
    <path
       class="cls-5"
       d="M405.34,396.61l-80.22,10.46a35.86,35.86,0,0,0-10,2.82l-55.6,24.8a2.08,2.08,0,0,0-1.13,1.25C258.21,436.47,405.34,396.61,405.34,396.61Z"
       id="path86543"
       style="fill:#946c30;fill-opacity:1" />
    <path
       class="cls-2"
       d="M503.25,380.32a230.34,230.34,0,0,1,41.14,19.47c9.91,5.95,19.41,12.07,26.71,17.95a14.83,14.83,0,0,1,5.37,9.39c1.23,8.38,1.52,16.8,2.75,25.18-10.83-1.49-36.89-6.58-60.25-27.72a110.51,110.51,0,0,1-26.49-36.48Z"
       id="path86545" />
    <path
       class="cls-6"
       d="M469,477.57l-.73,18.76a36.92,36.92,0,0,0,8.48-9.34c5.41-8.61,5.28-16.72,5.82-34.53.19-6.35.54-16.22,1.2-28.63,4.67,1.95,11.93,4.93,20.94,8.33,19.64,7.42,26.27,8.82,35.78,14.34a90.49,90.49,0,0,1,21.09,17.06c5.89-3.75,14.89-6.7,20.78-10.45a210.21,210.21,0,0,1-28.13-9.76c-13.66-6.12-32.69-14.89-48.26-33.83a100.34,100.34,0,0,1-13.45-21.41L458.93,414a102.92,102.92,0,0,1,11.41,43.2A100.06,100.06,0,0,1,469,477.57Z"
       id="path86547" />
    <path
       class="cls-2"
       d="M325.87,519.69l-6.24,4.7a11.68,11.68,0,0,0-4.3,12.18c2.06,8.13,6.5,19.74,8.5,22.53,2.22,3.11,8.92,7.56,13.07,9.48a3.8,3.8,0,0,0,3.56-.2,1.3,1.3,0,0,0,.57-1.57,7.51,7.51,0,0,1-.44-3.65c.31-2.11,1.63-4,6.89-7.81a89.73,89.73,0,0,1,10.18-6.43Z"
       id="path86549" />
    <path
       class="cls-7"
       d="M325.87,519.69l6,6a52.84,52.84,0,0,0-9.19,31.35,75.1,75.1,0,0,1-5.1-13c-2.1-7.23-3.13-10.94-1.66-15C317.87,523.7,323.06,520.9,325.87,519.69Z"
       id="path86551" />
    <path
       class="cls-7"
       d="M322.68,516.46l33.07,33.38a521.28,521.28,0,0,0,46.55-25.11c10.83-6.6,21.33-13.57,37.66-17.15a90.72,90.72,0,0,1,9.4-1.55,29.57,29.57,0,0,0,20.07-11.13c3.93-5.07,7.13-11.26,5.75-17-2.92-12.16-26.09-22-57.27-15a308.63,308.63,0,0,0-95.23,53.59Z"
       id="path86553"
       style="fill:#85d102;fill-opacity:1" />
    <path
       class="cls-8"
       d="M331.87,525.74l23.88,24.1a521.28,521.28,0,0,0,46.55-25.11c10.83-6.6,21.33-13.57,37.66-17.15a90.72,90.72,0,0,1,9.4-1.55,29.57,29.57,0,0,0,20.07-11.13c2.55-3.29,4.91-5.12,4.72-7.87-.38-5.22-8.49-8.47-11.45-9.65-20.14-8.07-51.56,4.95-58.72,8A389.35,389.35,0,0,0,331.87,525.74Z"
       id="path86555"
       style="fill:#4ec61c;fill-opacity:1" />
    <path
       class="cls-9"
       d="M354.21,493.46A143.89,143.89,0,0,1,374,512.26a146.67,146.67,0,0,1,14.54,20.25q-4.11,2.31-8.2,4.64a132,132,0,0,0-31.71-39.95C348.58,497.14,354.21,493.45,354.21,493.46Z"
       id="path86557"
       style="fill:#529b45;fill-opacity:1" />
    <path
       class="cls-7"
       d="M358.76,490.77A146.42,146.42,0,0,1,393,530l-8.2,4.65a132.13,132.13,0,0,0-32.08-40.27S358.7,490.73,358.76,490.77Z"
       id="path86559"
       style="fill:#529b45;fill-opacity:1" />
    <path
       class="cls-7"
       d="M415,463.9a115.78,115.78,0,0,1,31.31,42.52l-7.53,1.43a84.59,84.59,0,0,0-30.55-41.43Z"
       id="path86561"
       style="fill:#56d102;fill-opacity:1" />
    <path
       class="cls-9"
       d="M438.77,507.85l-4.8,1.26a136.48,136.48,0,0,0-31-40.61l5.25-2.08a214.12,214.12,0,0,1,19.88,24.47C432.18,496.76,435.71,502.45,438.77,507.85Z"
       id="path86563"
       style="fill:#529b45;fill-opacity:1" />
    <path
       class="cls-9"
       d="M342,529.94a.93.93,0,0,1-.78-.44.91.91,0,0,1,.29-1.26,458.44,458.44,0,0,1,99.62-46.95.92.92,0,0,1,.58,1.75,456.66,456.66,0,0,0-99.22,46.75A.88.88,0,0,1,342,529.94Z"
       id="path86565"
       style="fill:#529b45;fill-opacity:1" />
    <path
       class="cls-9"
       d="M349,537a.9.9,0,0,1-.78-.43.92.92,0,0,1,.29-1.27,459,459,0,0,1,99.62-46.94.92.92,0,0,1,.58,1.74,457.74,457.74,0,0,0-99.23,46.76A.86.86,0,0,1,349,537Z"
       id="path86567"
       style="fill:#529b45;fill-opacity:1" />
    <path
       class="cls-9"
       d="M354.06,544.82a.93.93,0,0,1-.78-.43.91.91,0,0,1,.29-1.26,442.37,442.37,0,0,1,96.06-45.27.92.92,0,1,1,.58,1.74,440.65,440.65,0,0,0-95.66,45.08A.87.87,0,0,1,354.06,544.82Z"
       id="path86569"
       style="fill:#529b45;fill-opacity:1" />
    <polygon
       class="cls-10"
       points="529.6 355.35 506.57 360.74 503.25 349.91 525.55 347.34 529.6 355.35"
       id="polygon86571" />
    <path
       class="cls-11"
       d="M543.73,245.25c.56-4.44.89-13.57-4.55-22.16-8-12.71-25.88-19.63-41.34-12.86C482.07,217.14,474,236,480.27,253.1a3,3,0,0,0,.31.59c10,14.5,17.2,17.17,22.06,16.55,10.25-1.3,13.72-17.6,30.41-22.2a31.56,31.56,0,0,1,8.43-1.12L545,247v-1.73Z"
       id="path86573" />
    <path
       class="cls-10"
       d="M534.89,247H511v15.31a10.86,10.86,0,0,1-5.73,5.37c-5.68,2-11.29-2.62-11.64-2.91-4-3.43-3.43-7.14-7.44-9.2a9.88,9.88,0,0,0-5-1c-.29,0-.8,13.33-.8,20,10.24,1.11,19.1,5.61,29.34,6.72.78-2.33,2.95-8.06,3.73-10.4l15.23-.46V257.31l6.2.08Z"
       id="path86575"
       style="fill:#e6e16a;fill-opacity:1" />
    <path
       class="cls-2"
       d="M500.44,351.71l27.11-4.14s-13-58.95-13.17-59.86c0-.07-2.86-4.41-2.91-4.6-.46-1.59-8-6.61-31.08-18.83L427,288.78l17.45,21.36-8.26,1.46L410,379.68a2.91,2.91,0,0,0,2,3.87l44.75,10.88c15.57-6.78,34.91-18.81,42.56-39.51C499.76,353.88,500.12,352.81,500.44,351.71Z"
       id="path86577" />
    <path
       class="cls-3"
       d="M493.32,287.86a238.61,238.61,0,0,0-60.76,7.78L427,288.78l30.69-14.07a48.12,48.12,0,0,1,22.75-.17,23.62,23.62,0,0,1,9.26,6.89A23,23,0,0,1,493.32,287.86Z"
       id="path86579" />
    <path
       class="cls-3"
       d="M512.49,309.45a57.64,57.64,0,0,0-7.91,10.33,58.26,58.26,0,0,0-4.6,9.57,2.4,2.4,0,0,1-1.72.54,2.25,2.25,0,0,1-1.26-.54,85.76,85.76,0,0,0-7.58-8.65,84.84,84.84,0,0,0-9-7.81v27.79A70.29,70.29,0,0,1,455,376.51l9.8,8.73a87.31,87.31,0,0,0,47.72-75.79Z"
       id="path86581" />
    <polygon
       class="cls-12"
       points="417.53 295.64 426.95 288.78 444.4 310.14 441.68 311.61 417.53 295.64"
       id="polygon86583" />
    <path
       class="cls-10"
       d="M433.23,357.53l-15.7,11.33-1.76-69.11a4.11,4.11,0,0,1,4.11-4.11l22.49,15.59-6.23,1.66Z"
       id="path86585"
       style="fill:#e6e16a;fill-opacity:1" />
    <path
       class="cls-10"
       d="M484.45,394.51l-9-12.19,39.78-30.76c4.36-3.06,10.57-1.73,13.86,3h0c3.3,4.69,2.44,11-1.93,14Z"
       id="path86587"
       style="fill:#e6e16a;fill-opacity:1" />
    <path
       class="cls-13"
       d="M475.33,381.27l9.32,13.13c-3,4.54-21,20.28-24.48,23.15-1.66.17-10,1.24-15-4.44-2.36-2.69-4.51-8.16-4.51-9.59a2.66,2.66,0,0,1,1.23-2.25c7-3.79,14.29-8.19,21.81-13.27C467.46,385.45,472,383.81,475.33,381.27Z"
       id="path86589"
       style="fill:#6f7882;fill-opacity:1" />
    <path
       class="cls-14"
       d="M434.53,356.07l-18.76,14q9,15.46,17.92,30.93a14.42,14.42,0,0,0,9.8,3.55,14.78,14.78,0,0,0,9.41-4.16,18.21,18.21,0,0,0,6-14.1,11.28,11.28,0,0,0-3.08-7.47Z"
       id="path86591"
       style="fill:#696c70;fill-opacity:1" />
    <path
       class="cls-15"
       d="M452.44,380.35a20.1,20.1,0,0,1-18.83,14.08,54.81,54.81,0,0,0,18.83-14.08Z"
       id="path86593"
       style="fill:#7e8488;fill-opacity:1" />
    <path
       class="cls-3"
       d="M622.4,569.21h25.19a1.17,1.17,0,0,0,1-1.75,21.79,21.79,0,0,0-1.85-2.69c-4.74-5.82-11.38-7.39-15.47-8.58a91.16,91.16,0,0,1-23.12-10.64Z"
       id="path86595" />
    <polygon
       class="cls-2"
       points="614.33 555.8 599.88 560.86 600.91 534.83 608.16 544.48 614.33 555.8"
       id="polygon86597" />
    <path
       class="cls-2"
       d="M566.13,474.78a76,76,0,0,0,1.09,11.13C569.44,498.66,574,505.43,579,518a157,157,0,0,1,6.89,22v29.17H628.3l-27.55-26.44a113,113,0,0,0,.29-25.39,116.53,116.53,0,0,0-18.6-51.75Z"
       id="path86599" />
    <path
       class="cls-16"
       d="M587.7,400.68a1.63,1.63,0,0,1,2.45.75,576.85,576.85,0,0,1,25.59,86.24c3.94,18.46,6.73,36,8.66,52.36.16,1.33-7.17,6-17.81,8.82a390,390,0,0,1-28-100.85c-1.57-11.57-2.55-22.68-3.06-33.24a7.44,7.44,0,0,1,.3-4.31,7.3,7.3,0,0,1,2.68-3.4Z"
       id="path86601"
       style="fill:#4ec61c;fill-opacity:1" />
    <path
       class="cls-7"
       d="M617.61,544.86a64.16,64.16,0,0,1-11,4c-.84-2-2-4.67-3.29-7.92a398.77,398.77,0,0,1-13.06-37.85A388.92,388.92,0,0,1,578.59,448c-1.57-11.57-2.55-22.68-3.06-33.24a7.44,7.44,0,0,1,.3-4.31,7.3,7.3,0,0,1,2.68-3.4l7.37-5.11a367.54,367.54,0,0,0,31.73,142.92Z"
       id="path86603"
       style="fill:#85d102;fill-opacity:1" />
    <path
       class="cls-9"
       d="M561.54,470.55v11.22a111.79,111.79,0,0,1,48.69-22.47v-9.82a156.63,156.63,0,0,0-48.69,21.07Z"
       id="path86605"
       style="fill:#529b45;fill-opacity:1" />
    <path
       class="cls-7"
       d="M561.54,463.56v11.22a111.48,111.48,0,0,1,48.69-22.47v-9.82a156.63,156.63,0,0,0-48.69,21.07Z"
       id="path86607"
       style="fill:#56d102;fill-opacity:1" />
    <path
       class="cls-9"
       d="M579.22,534.83l.84,10.72a125.78,125.78,0,0,1,44.56-22.66V514a189.33,189.33,0,0,0-45.4,20.82Z"
       id="path86609"
       style="fill:#529b45;fill-opacity:1" />
    <path
       class="cls-7"
       d="M579.22,531.16l.84,10.72a125.78,125.78,0,0,1,44.56-22.66v-8.88A188.34,188.34,0,0,0,600,519.83,190.41,190.41,0,0,0,579.22,531.16Z"
       id="path86611"
       style="fill:#56d102;fill-opacity:1" />
    <path
       class="cls-11"
       d="M258.4,568.93a1180.34,1180.34,0,0,0,228.72,23.48A1180.11,1180.11,0,0,0,726.9,568.93Z"
       id="path86613"
       style="fill:#4d4d4d" />
    <g
       id="wickets">
      <rect
         class="cls-17"
         x="88.41"
         y="416.28"
         width="4.9"
         height="152.65"
         id="rect86616"
         style="fill:#ca8618;fill-opacity:1" />
      <rect
         class="cls-17"
         x="106.17"
         y="416.28"
         width="4.9"
         height="152.65"
         id="rect86618"
         style="fill:#ca8618;fill-opacity:1" />
      <rect
         class="cls-17"
         x="123.93"
         y="416.28"
         width="4.9"
         height="152.65"
         id="rect86620"
         style="fill:#ca8618;fill-opacity:1" />
      <rect
         class="cls-17"
         x="92.39"
         y="412.5"
         width="14.7"
         height="3.78"
         id="rect86622"
         style="fill:#ca8618;fill-opacity:1" />
      <rect
         class="cls-17"
         x="110.15"
         y="412.5"
         width="14.7"
         height="3.78"
         id="rect86624"
         style="fill:#ca8618;fill-opacity:1" />
      <rect
         class="cls-1"
         x="85.809998"
         y="427.04001"
         width="45.630001"
         height="2.1394687"
         id="rect86626"
         style="stroke-width:1.76087;fill:#9e6030;fill-opacity:1" />
      <path
         class="cls-11"
         d="M73.1,568.93a64.2,64.2,0,0,0,77.78,0Z"
         id="path86628"
         style="fill:#4d4d4d" />
    </g>
  </g>
  <metadata
     id="metadata88946">
    <rdf:RDF>
      <cc:Work
         rdf:about="">
        <dc:title>Cricketer</dc:title>
        <dc:creator>
          <cc:Agent>
            <dc:title>j4p4n</dc:title>
          </cc:Agent>
        </dc:creator>
        <cc:license
           rdf:resource="http://creativecommons.org/publicdomain/zero/1.0/" />
      </cc:Work>
      <cc:License
         rdf:about="http://creativecommons.org/publicdomain/zero/1.0/">
        <cc:permits
           rdf:resource="http://creativecommons.org/ns#Reproduction" />
        <cc:permits
           rdf:resource="http://creativecommons.org/ns#Distribution" />
        <cc:permits
           rdf:resource="http://creativecommons.org/ns#DerivativeWorks" />
      </cc:License>
    </rdf:RDF>
  </metadata>
</svg>
