<?xml version="1.0" encoding="iso-8859-1"?>
<!-- Uploaded to: SVG Repo, www.svgrepo.com, Generator: SVG Repo Mixer Tools -->
<svg height="800px" width="800px" version="1.1" id="Layer_1" xmlns="http://www.w3.org/2000/svg" xmlns:xlink="http://www.w3.org/1999/xlink" 
	 viewBox="0 0 448.017 448.017" xml:space="preserve">
<g transform="translate(0 -1020.36)" shape-rendering="auto" image-rendering="auto" color-rendering="auto" color-interpolation="sRGB">
	<path style="fill:#5A3392;" d="M415.522,1020.36c-2.079,0.034-4.063,0.876-5.531,2.348l-128.75,128.875
		c-4.499,4.51-10.506,6.969-16.875,6.969h-35.562c-2.126,0.01-4.161,0.865-5.656,2.377L6.991,1377.178
		c-9.306,9.309-9.307,24.689,0,34l50.562,50.563c4.927,4.934,11.432,6.797,17.469,6.625c6.037-0.176,11.947-2.23,16.406-6.625
		c78.321-77.203,216.156-216.375,216.156-216.375c1.499-1.5,2.342-3.531,2.344-5.652v-35.439c0-6.371,2.465-12.525,6.969-17.031
		l128.75-128.842c3.133-3.115,3.147-8.182,0.031-11.314c-0.01-0.01-0.021-0.021-0.031-0.031l-24.313-24.312
		c-1.532-1.552-3.632-2.41-5.813-2.378V1020.36z"/>
	<path style="fill:#29A3EC;" d="M415.647,1039.736l13.125,12.968l-123.063,123.188c-5.562,5.564-9.372,12.641-10.969,20.25
		l-67.25,44.846l44.781-67.189c7.636-1.568,14.712-5.387,20.313-11L415.647,1039.736L415.647,1039.736z"/>
	<path style="fill:#EE746C;" d="M232.116,1174.61h20.406l-59.719,89.719l-116,116.252H26.272l205.844-205.969V1174.61z"/>
	<path style="fill:#FB9761;" d="M293.897,1215.985v20.5c-2.874,2.902-127.804,128.871-205.875,206v-50.563l115.437-115.563
		l90.437-60.377V1215.985z"/>
	<path style="fill:#FFFFFF;" d="M16.428,1396.641h55.656v55.406c-1.307-0.305-2.49-0.832-3.313-1.656l-50.438-50.564
		C17.396,1398.883,16.814,1397.796,16.428,1396.641L16.428,1396.641z"/>
	<path style="fill:#3CDEF6;" d="M408.575,1047.868l12.064,11.922l-113.118,113.232c-5.112,5.115-11.973,11.795-13.441,18.789
		l-58.457,41.045l41.162-58.578c7.019-1.439,13.523-8.135,18.671-13.293L408.575,1047.868z"/>
	<path style="fill:#EBFEFF;" d="M21.428,1401.62h45.656v45.451c-1.072-0.24-2.042-0.688-2.718-1.359l-41.375-41.479
		C22.222,1403.465,21.745,1402.565,21.428,1401.62L21.428,1401.62z"/>
</g>
</svg>